<?xml version="1.0" encoding="UTF-8" standalone="no"?>
<!-- Created with Inkscape (http://www.inkscape.org/) -->

<svg
   xmlns:dc="http://purl.org/dc/elements/1.1/"
   xmlns:cc="http://creativecommons.org/ns#"
   xmlns:rdf="http://www.w3.org/1999/02/22-rdf-syntax-ns#"
   xmlns:svg="http://www.w3.org/2000/svg"
   xmlns="http://www.w3.org/2000/svg"
   xmlns:sodipodi="http://sodipodi.sourceforge.net/DTD/sodipodi-0.dtd"
   xmlns:inkscape="http://www.inkscape.org/namespaces/inkscape"
   width="744.09448819"
   height="1052.3622047"
   id="svg2"
   version="1.1"
   inkscape:version="0.48.1 r9760"
   sodipodi:docname="sep_diagram.svg">
  <defs
     id="defs4">
    <marker
       inkscape:stockid="Arrow2Lstart"
       orient="auto"
       refY="0.0"
       refX="0.0"
       id="Arrow2Lstart"
       style="overflow:visible">
      <path
         id="path3968"
         style="font-size:12.0;fill-rule:evenodd;stroke-width:0.62500000;stroke-linejoin:round"
         d="M 8.7185878,4.0337352 L -2.2072895,0.016013256 L 8.7185884,-4.0017078 C 6.9730900,-1.6296469 6.9831476,1.6157441 8.7185878,4.0337352 z "
         transform="scale(1.1) translate(1,0)" />
    </marker>
    <marker
       inkscape:stockid="DotL"
       orient="auto"
       refY="0.0"
       refX="0.0"
       id="DotL"
       style="overflow:visible">
      <path
         id="path4012"
         d="M -2.5,-1.0 C -2.5,1.7600000 -4.7400000,4.0 -7.5,4.0 C -10.260000,4.0 -12.5,1.7600000 -12.5,-1.0 C -12.5,-3.7600000 -10.260000,-6.0 -7.5,-6.0 C -4.7400000,-6.0 -2.5,-3.7600000 -2.5,-1.0 z "
         style="fill-rule:evenodd;stroke:#000000;stroke-width:1.0pt;marker-start:none;marker-end:none"
         transform="scale(0.8) translate(7.4, 1)" />
    </marker>
    <marker
       inkscape:stockid="Arrow1Lend"
       orient="auto"
       refY="0.0"
       refX="0.0"
       id="Arrow1Lend"
       style="overflow:visible;">
      <path
         id="path3953"
         d="M 0.0,0.0 L 5.0,-5.0 L -12.5,0.0 L 5.0,5.0 L 0.0,0.0 z "
         style="fill-rule:evenodd;stroke:#000000;stroke-width:1.0pt;marker-start:none;"
         transform="scale(0.8) rotate(180) translate(12.5,0)" />
    </marker>
    <filter
       inkscape:collect="always"
       id="filter5503"
       x="-0.41573926"
       width="1.8314785"
       y="-0.73049147"
       height="2.4609829">
      <feGaussianBlur
         inkscape:collect="always"
         stdDeviation="18.787267"
         id="feGaussianBlur5505" />
    </filter>
  </defs>
  <sodipodi:namedview
     id="base"
     pagecolor="#ffffff"
     bordercolor="#666666"
     borderopacity="1.0"
     inkscape:pageopacity="0.0"
     inkscape:pageshadow="2"
     inkscape:zoom="1.4648618"
     inkscape:cx="367.82528"
     inkscape:cy="697.13963"
     inkscape:document-units="px"
     inkscape:current-layer="layer1"
     showgrid="false"
     inkscape:snap-grids="false"
     inkscape:window-width="1680"
     inkscape:window-height="973"
     inkscape:window-x="0"
     inkscape:window-y="24"
     inkscape:window-maximized="1">
    <inkscape:grid
       type="xygrid"
       id="grid7210" />
  </sodipodi:namedview>
  <metadata
     id="metadata7">
    <rdf:RDF>
      <cc:Work
         rdf:about="">
        <dc:format>image/svg+xml</dc:format>
        <dc:type
           rdf:resource="http://purl.org/dc/dcmitype/StillImage" />
        <dc:title></dc:title>
      </cc:Work>
    </rdf:RDF>
  </metadata>
  <g
     inkscape:label="Layer 1"
     inkscape:groupmode="layer"
     id="layer1">
    <path
       style="fill:none;stroke:#999999;stroke-width:1px;stroke-linecap:butt;stroke-linejoin:miter;stroke-opacity:1"
       d="M 426.24855,547.63754 402.0195,398.74508 442.82875,357.81541"
       id="path6647"
       inkscape:connector-curvature="0"
       sodipodi:nodetypes="ccc"
       inkscape:export-filename="/home/dps/Documents/Programing/workspace/HELIOPropagation/web/common_files/images/exp_sep.png"
       inkscape:export-xdpi="99.010002"
       inkscape:export-ydpi="99.010002" />
    <g
       id="g6741"
       transform="translate(25.218199,5.4039003)"
       inkscape:export-filename="/home/dps/Documents/Programing/workspace/HELIOPropagation/web/common_files/images/exp_sep.png"
       inkscape:export-xdpi="99.010002"
       inkscape:export-ydpi="99.010002">
      <path
         inkscape:export-ydpi="99.010002"
         inkscape:export-xdpi="99.010002"
         inkscape:export-filename="/home/dps/Documents/Programing/workspace/HELIOPropagation/web/common_files/images/exp_cme.png"
         inkscape:transform-center-y="-5.9727851"
         inkscape:transform-center-x="6.5392572"
         sodipodi:end="0.83312388"
         sodipodi:start="0"
         transform="matrix(-0.52221416,-0.13458774,0.13458774,-0.52221416,411.88116,501.08616)"
         d="m 131.18771,178.51602 c 0,4.45323 -1.8789,8.69977 -5.17445,11.69486 l -10.62865,-11.69486 z"
         sodipodi:ry="15.8031"
         sodipodi:rx="15.8031"
         sodipodi:cy="178.51602"
         sodipodi:cx="115.38461"
         id="path4637"
         style="fill:#000000;fill-opacity:1;fill-rule:evenodd;stroke:none"
         sodipodi:type="arc" />
      <path
         inkscape:export-ydpi="99.010002"
         inkscape:export-xdpi="99.010002"
         inkscape:export-filename="/home/dps/Documents/Programing/workspace/HELIOPropagation/web/common_files/images/exp_cme.png"
         id="path4643"
         d="m 367.6875,382.375 c 1.25274,0.0881 2.35008,0.70947 2.875,1.78125 L 366.84375,386 l 3.71875,-1.8125 c 0.84407,1.73293 -0.12787,3.9343 -2.1875,4.9375 -2.05963,1.0032 -4.40593,0.42043 -5.25,-1.3125 -0.18248,-0.37464 -0.2934,-0.78469 -0.3125,-1.1875 -0.006,0.4881 0.0921,0.985 0.3125,1.4375 0.88161,1.81 3.34877,2.42282 5.5,1.375 2.15123,-1.04782 3.16286,-3.3775 2.28125,-5.1875 -0.57822,-1.18061 -1.82221,-1.844 -3.21875,-1.875 z"
         style="fill:#f2f2f2;fill-opacity:1;stroke:none"
         inkscape:connector-curvature="0" />
      <path
         inkscape:export-ydpi="99.010002"
         inkscape:export-xdpi="99.010002"
         inkscape:export-filename="/home/dps/Documents/Programing/workspace/HELIOPropagation/web/common_files/images/exp_cme.png"
         transform="matrix(0.86074666,-0.41925193,0.41925193,0.86074666,-110.96665,207.485)"
         sodipodi:end="6.2813625"
         sodipodi:start="0"
         d="m 371.35063,386.15411 c 0,2.01329 -1.93978,3.64538 -4.33262,3.64538 -2.39285,0 -4.33263,-1.63209 -4.33263,-3.64538 0,-2.01328 1.93978,-3.64538 4.33263,-3.64538 2.38975,0 4.32826,1.62805 4.33261,3.63874 l -4.33261,0.007 z"
         sodipodi:ry="3.6453795"
         sodipodi:rx="4.3326235"
         sodipodi:cy="386.15411"
         sodipodi:cx="367.01801"
         id="path4647"
         style="opacity:0.6015625;fill:#ffffff;fill-opacity:1;stroke:none"
         sodipodi:type="arc" />
      <path
         inkscape:export-ydpi="99.010002"
         inkscape:export-xdpi="99.010002"
         inkscape:export-filename="/home/dps/Documents/Programing/workspace/HELIOPropagation/web/common_files/images/exp_cme.png"
         sodipodi:nodetypes="ccc"
         inkscape:connector-curvature="0"
         id="path4635"
         d="m 355.82879,390.7207 c 5.87211,-4.14509 11.69109,0.85815 19.29627,1.19521 -1.62221,-6.57936 -9.03997,-10.94377 -5.83043,-17.63342"
         style="fill:none;stroke:#000000;stroke-width:1px;stroke-linecap:round;stroke-linejoin:round;stroke-opacity:1" />
    </g>
    <g
       id="g5378">
      <g
         id="g5383" />
    </g>
    <rect
       style="fill:#b3b3b3;fill-opacity:1;stroke:none"
       id="rect6600"
       width="221.875"
       height="210.41667"
       x="422.60269"
       y="354.65848"
       ry="29.166666"
       inkscape:export-filename="/home/dps/Documents/Programing/workspace/HELIOPropagation/web/common_files/images/exp_sep.png"
       inkscape:export-xdpi="99.010002"
       inkscape:export-ydpi="99.010002" />
    <path
       transform="matrix(1.2281355,0,0,1.2281355,-211.14732,123.62668)"
       sodipodi:type="arc"
       style="fill:#e6e6e6;stroke:#000000;stroke-width:0.18564726;stroke-linecap:butt;stroke-linejoin:round;stroke-miterlimit:4;stroke-opacity:1;stroke-dasharray:none;stroke-dashoffset:0"
       id="path5507"
       sodipodi:cx="569.40399"
       sodipodi:cy="284.1929"
       sodipodi:rx="36.440296"
       sodipodi:ry="36.440296"
       d="m 605.84429,284.1929 a 36.440296,36.440296 0 1 1 -72.88059,0 36.440296,36.440296 0 1 1 72.88059,0 z"
       inkscape:tile-x0="532.9637"
       inkscape:tile-y0="247.75261"
       inkscape:export-filename="/home/dps/Documents/Programing/workspace/HELIOPropagation/web/common_files/images/exp_sep.png"
       inkscape:export-xdpi="99.010002"
       inkscape:export-ydpi="99.010002" />
    <path
       inkscape:tile-y0="247.75261"
       inkscape:tile-x0="532.9637"
       d="m 605.84429,284.1929 a 36.440296,36.440296 0 1 1 -72.88059,0 36.440296,36.440296 0 1 1 72.88059,0 z"
       sodipodi:ry="36.440296"
       sodipodi:rx="36.440296"
       sodipodi:cy="284.1929"
       sodipodi:cx="569.40399"
       id="use5098"
       style="fill:#ffff00;stroke:#000000;stroke-width:1;stroke-linecap:butt;stroke-linejoin:round;stroke-miterlimit:4;stroke-opacity:1;stroke-dasharray:none;stroke-dashoffset:0"
       sodipodi:type="arc"
       transform="translate(-81.246037,188.46118)"
       inkscape:export-filename="/home/dps/Documents/Programing/workspace/HELIOPropagation/web/common_files/images/exp_sep.png"
       inkscape:export-xdpi="99.010002"
       inkscape:export-ydpi="99.010002" />
    <path
       inkscape:tile-y0="247.75261"
       inkscape:tile-x0="532.9637"
       d="m 605.84429,284.1929 a 36.440296,36.440296 0 1 1 -72.88059,0 36.440296,36.440296 0 1 1 72.88059,0 z"
       sodipodi:ry="36.440296"
       sodipodi:rx="36.440296"
       sodipodi:cy="284.1929"
       sodipodi:cx="569.40399"
       id="use5100"
       style="fill:none;stroke:#000000;stroke-width:0.66411221;stroke-linecap:butt;stroke-linejoin:round;stroke-miterlimit:4;stroke-opacity:1;stroke-dasharray:none;stroke-dashoffset:0"
       sodipodi:type="arc"
       transform="matrix(0.8,0,0,1,32.634761,188.46118)"
       inkscape:export-filename="/home/dps/Documents/Programing/workspace/HELIOPropagation/web/common_files/images/exp_sep.png"
       inkscape:export-xdpi="99.010002"
       inkscape:export-ydpi="99.010002" />
    <path
       inkscape:tile-y0="247.75261"
       inkscape:tile-x0="532.9637"
       d="m 605.84429,284.1929 a 36.440296,36.440296 0 1 1 -72.88059,0 36.440296,36.440296 0 1 1 72.88059,0 z"
       sodipodi:ry="36.440296"
       sodipodi:rx="36.440296"
       sodipodi:cy="284.1929"
       sodipodi:cx="569.40399"
       id="use5102"
       style="fill:none;stroke:#000000;stroke-width:0.61322236;stroke-linecap:butt;stroke-linejoin:round;stroke-miterlimit:4;stroke-opacity:1;stroke-dasharray:none;stroke-dashoffset:0"
       sodipodi:type="arc"
       transform="matrix(0.6,0,0,1,146.51557,188.46118)"
       inkscape:export-filename="/home/dps/Documents/Programing/workspace/HELIOPropagation/web/common_files/images/exp_sep.png"
       inkscape:export-xdpi="99.010002"
       inkscape:export-ydpi="99.010002" />
    <path
       inkscape:tile-y0="247.75261"
       inkscape:tile-x0="532.9637"
       d="m 605.84429,284.1929 a 36.440296,36.440296 0 1 1 -72.88059,0 36.440296,36.440296 0 1 1 72.88059,0 z"
       sodipodi:ry="36.440296"
       sodipodi:rx="36.440296"
       sodipodi:cy="284.1929"
       sodipodi:cx="569.40399"
       id="use5104"
       style="fill:none;stroke:#000000;stroke-width:0.68305194;stroke-linecap:butt;stroke-linejoin:round;stroke-miterlimit:4;stroke-opacity:1;stroke-dasharray:none;stroke-dashoffset:0"
       sodipodi:type="arc"
       transform="matrix(0.4,0,0,1,260.39636,188.46118)"
       inkscape:export-filename="/home/dps/Documents/Programing/workspace/HELIOPropagation/web/common_files/images/exp_sep.png"
       inkscape:export-xdpi="99.010002"
       inkscape:export-ydpi="99.010002" />
    <path
       inkscape:tile-y0="247.75261"
       inkscape:tile-x0="532.9637"
       d="m 605.84429,284.1929 a 36.440296,36.440296 0 1 1 -72.88059,0 36.440296,36.440296 0 1 1 72.88059,0 z"
       sodipodi:ry="36.440296"
       sodipodi:rx="36.440296"
       sodipodi:cy="284.1929"
       sodipodi:cx="569.40399"
       id="use5106"
       style="fill:none;stroke:#000000;stroke-width:1;stroke-linecap:butt;stroke-linejoin:round;stroke-miterlimit:4;stroke-opacity:1;stroke-dasharray:none;stroke-dashoffset:0"
       sodipodi:type="arc"
       transform="matrix(0.2,0,0,1,374.27715,188.46118)"
       inkscape:export-filename="/home/dps/Documents/Programing/workspace/HELIOPropagation/web/common_files/images/exp_sep.png"
       inkscape:export-xdpi="99.010002"
       inkscape:export-ydpi="99.010002" />
    <path
       style="fill:none;stroke:#000000;stroke-width:0.5;stroke-linecap:round;stroke-linejoin:miter;stroke-miterlimit:4;stroke-opacity:1;stroke-dasharray:none"
       d="m 488.13789,436.15534 -0.2413,73.03396"
       id="path5118"
       inkscape:connector-curvature="0"
       sodipodi:nodetypes="cc"
       inkscape:export-filename="/home/dps/Documents/Programing/workspace/HELIOPropagation/web/common_files/images/exp_sep.png"
       inkscape:export-xdpi="99.010002"
       inkscape:export-ydpi="99.010002" />
    <path
       sodipodi:type="arc"
       style="fill:none;stroke:#000000;stroke-width:0.5;stroke-linecap:round;stroke-linejoin:round;stroke-miterlimit:4;stroke-opacity:1;stroke-dasharray:none;stroke-dashoffset:0"
       id="path5322"
       sodipodi:cx="696.5304"
       sodipodi:cy="298.32794"
       sodipodi:rx="36.82692"
       sodipodi:ry="36.82692"
       d="m 733.35732,298.32794 a 36.82692,36.82692 0 1 1 -73.65384,0"
       transform="matrix(0.98589854,0,0,0.30146868,-198.45977,382.71755)"
       inkscape:tile-cx="696.5304"
       inkscape:tile-cy="296.32794"
       inkscape:tile-w="73.653839"
       inkscape:tile-h="73.653839"
       inkscape:tile-x0="659.70348"
       inkscape:tile-y0="259.50102"
       sodipodi:start="0"
       sodipodi:end="3.1415927"
       sodipodi:open="true"
       inkscape:export-filename="/home/dps/Documents/Programing/workspace/HELIOPropagation/web/common_files/images/exp_sep.png"
       inkscape:export-xdpi="99.010002"
       inkscape:export-ydpi="99.010002" />
    <path
       sodipodi:end="2.9493862"
       sodipodi:start="0.17586432"
       inkscape:tile-y0="259.50102"
       inkscape:tile-x0="659.70348"
       inkscape:tile-h="73.653839"
       inkscape:tile-w="73.653839"
       inkscape:tile-cy="296.32794"
       inkscape:tile-cx="696.5304"
       transform="matrix(0.98589854,0,0,0.30146868,-198.45977,372.71755)"
       d="m 732.78929,304.77115 a 36.82692,36.82692 0 0 1 -72.40765,0.59166"
       sodipodi:ry="36.82692"
       sodipodi:rx="36.82692"
       sodipodi:cy="298.32794"
       sodipodi:cx="696.5304"
       id="path5389"
       style="fill:none;stroke:#000000;stroke-width:0.5;stroke-linecap:round;stroke-linejoin:round;stroke-miterlimit:4;stroke-opacity:1;stroke-dasharray:none;stroke-dashoffset:0"
       sodipodi:type="arc"
       sodipodi:open="true"
       inkscape:export-filename="/home/dps/Documents/Programing/workspace/HELIOPropagation/web/common_files/images/exp_sep.png"
       inkscape:export-xdpi="99.010002"
       inkscape:export-ydpi="99.010002" />
    <path
       sodipodi:type="arc"
       style="fill:none;stroke:#000000;stroke-width:0.5;stroke-linecap:round;stroke-linejoin:round;stroke-miterlimit:4;stroke-opacity:1;stroke-dasharray:none;stroke-dashoffset:0"
       id="path5391"
       sodipodi:cx="696.5304"
       sodipodi:cy="298.32794"
       sodipodi:rx="36.82692"
       sodipodi:ry="36.82692"
       d="M 730.01838,313.65038 A 36.82692,36.82692 0 0 1 662.64546,312.7513"
       transform="matrix(0.98589854,0,0,0.30146868,-198.45977,362.71755)"
       inkscape:tile-cx="696.5304"
       inkscape:tile-cy="296.32794"
       inkscape:tile-w="73.653839"
       inkscape:tile-h="73.653839"
       inkscape:tile-x0="659.70348"
       inkscape:tile-y0="259.50102"
       sodipodi:start="0.42911501"
       sodipodi:end="2.7391657"
       sodipodi:open="true"
       inkscape:export-filename="/home/dps/Documents/Programing/workspace/HELIOPropagation/web/common_files/images/exp_sep.png"
       inkscape:export-xdpi="99.010002"
       inkscape:export-ydpi="99.010002" />
    <path
       sodipodi:end="2.5435706"
       sodipodi:start="0.60829741"
       inkscape:tile-y0="259.50102"
       inkscape:tile-x0="659.70348"
       inkscape:tile-h="73.653839"
       inkscape:tile-w="73.653839"
       inkscape:tile-cy="296.32794"
       inkscape:tile-cx="696.5304"
       transform="matrix(0.98589854,0,0,0.30146868,-198.45977,354.71755)"
       d="m 726.75138,319.37346 a 36.82692,36.82692 0 0 1 -60.65662,-0.31163"
       sodipodi:ry="36.82692"
       sodipodi:rx="36.82692"
       sodipodi:cy="298.32794"
       sodipodi:cx="696.5304"
       id="path5393"
       style="fill:none;stroke:#000000;stroke-width:0.5;stroke-linecap:round;stroke-linejoin:round;stroke-miterlimit:4;stroke-opacity:1;stroke-dasharray:none;stroke-dashoffset:0"
       sodipodi:type="arc"
       sodipodi:open="true"
       inkscape:export-filename="/home/dps/Documents/Programing/workspace/HELIOPropagation/web/common_files/images/exp_sep.png"
       inkscape:export-xdpi="99.010002"
       inkscape:export-ydpi="99.010002" />
    <path
       sodipodi:type="arc"
       style="fill:none;stroke:#000000;stroke-width:0.5;stroke-linecap:round;stroke-linejoin:round;stroke-miterlimit:4;stroke-opacity:1;stroke-dasharray:none;stroke-dashoffset:0"
       id="path5395"
       sodipodi:cx="696.5304"
       sodipodi:cy="298.32794"
       sodipodi:rx="36.82692"
       sodipodi:ry="36.82692"
       d="m 720.57788,326.21952 a 36.82692,36.82692 0 0 1 -48.66809,-0.50458"
       transform="matrix(0.98589854,0,0,0.30146868,-198.45977,346.71755)"
       inkscape:tile-cx="696.5304"
       inkscape:tile-cy="296.32794"
       inkscape:tile-w="73.653839"
       inkscape:tile-h="73.653839"
       inkscape:tile-x0="659.70348"
       inkscape:tile-y0="259.50102"
       sodipodi:start="0.85927506"
       sodipodi:end="2.3030525"
       sodipodi:open="true"
       inkscape:export-filename="/home/dps/Documents/Programing/workspace/HELIOPropagation/web/common_files/images/exp_sep.png"
       inkscape:export-xdpi="99.010002"
       inkscape:export-ydpi="99.010002" />
    <path
       sodipodi:end="1.9791768"
       sodipodi:start="1.1630113"
       inkscape:tile-y0="259.50102"
       inkscape:tile-x0="659.70348"
       inkscape:tile-h="73.653839"
       inkscape:tile-w="73.653839"
       inkscape:tile-cy="296.32794"
       inkscape:tile-cx="696.5304"
       transform="matrix(0.98589854,0,0,0.30146868,-198.45977,338.71755)"
       d="m 711.1351,332.13511 a 36.82692,36.82692 0 0 1 -29.22954,-0.009"
       sodipodi:ry="36.82692"
       sodipodi:rx="36.82692"
       sodipodi:cy="298.32794"
       sodipodi:cx="696.5304"
       id="path5397"
       style="fill:none;stroke:#000000;stroke-width:0.5;stroke-linecap:round;stroke-linejoin:round;stroke-miterlimit:4;stroke-opacity:1;stroke-dasharray:none;stroke-dashoffset:0"
       sodipodi:type="arc"
       sodipodi:open="true"
       inkscape:export-filename="/home/dps/Documents/Programing/workspace/HELIOPropagation/web/common_files/images/exp_sep.png"
       inkscape:export-xdpi="99.010002"
       inkscape:export-ydpi="99.010002" />
    <path
       sodipodi:open="true"
       sodipodi:type="arc"
       style="fill:none;stroke:#000000;stroke-width:0.5;stroke-linecap:round;stroke-linejoin:round;stroke-miterlimit:4;stroke-opacity:1;stroke-dasharray:none;stroke-dashoffset:0"
       id="path5399"
       sodipodi:cx="696.5304"
       sodipodi:cy="298.32794"
       sodipodi:rx="36.82692"
       sodipodi:ry="36.82692"
       d="m 732.78929,304.77115 a 36.82692,36.82692 0 0 1 -70.73118,6.51377"
       transform="matrix(-0.98589854,0,0,0.30146868,1175.0654,390.96434)"
       inkscape:tile-cx="696.5304"
       inkscape:tile-cy="296.32794"
       inkscape:tile-w="73.653839"
       inkscape:tile-h="73.653839"
       inkscape:tile-x0="659.70348"
       inkscape:tile-y0="259.50102"
       sodipodi:start="0.17586432"
       sodipodi:end="2.7820625"
       inkscape:export-filename="/home/dps/Documents/Programing/workspace/HELIOPropagation/web/common_files/images/exp_sep.png"
       inkscape:export-xdpi="99.010002"
       inkscape:export-ydpi="99.010002" />
    <path
       sodipodi:open="true"
       sodipodi:end="2.4759407"
       sodipodi:start="0.66683335"
       inkscape:tile-y0="259.50102"
       inkscape:tile-x0="659.70348"
       inkscape:tile-h="73.653839"
       inkscape:tile-w="73.653839"
       inkscape:tile-cy="296.32794"
       inkscape:tile-cx="696.5304"
       transform="matrix(-0.98589854,0,0,0.30146868,1174.5655,398.55771)"
       d="m 725.46841,321.10542 a 36.82692,36.82692 0 0 1 -57.90291,-0.0342"
       sodipodi:ry="36.82692"
       sodipodi:rx="36.82692"
       sodipodi:cy="298.32794"
       sodipodi:cx="696.5304"
       id="path5401"
       style="fill:none;stroke:#000000;stroke-width:0.5;stroke-linecap:round;stroke-linejoin:round;stroke-miterlimit:4;stroke-opacity:1;stroke-dasharray:none;stroke-dashoffset:0"
       sodipodi:type="arc"
       inkscape:export-filename="/home/dps/Documents/Programing/workspace/HELIOPropagation/web/common_files/images/exp_sep.png"
       inkscape:export-xdpi="99.010002"
       inkscape:export-ydpi="99.010002" />
    <path
       sodipodi:open="true"
       sodipodi:type="arc"
       style="fill:none;stroke:#000000;stroke-width:0.5;stroke-linecap:round;stroke-linejoin:round;stroke-miterlimit:4;stroke-opacity:1;stroke-dasharray:none;stroke-dashoffset:0"
       id="path5403"
       sodipodi:cx="696.5304"
       sodipodi:cy="298.32794"
       sodipodi:rx="36.82692"
       sodipodi:ry="36.82692"
       d="m 714.79984,330.30371 a 36.82692,36.82692 0 0 1 -38.08239,-0.93275"
       transform="matrix(-0.98589854,0,0,0.30146868,1174.7452,404.65699)"
       inkscape:tile-cx="696.5304"
       inkscape:tile-cy="296.32794"
       inkscape:tile-w="73.653839"
       inkscape:tile-h="73.653839"
       inkscape:tile-x0="659.70348"
       inkscape:tile-y0="259.50102"
       sodipodi:start="1.0517073"
       sodipodi:end="2.138861"
       inkscape:export-filename="/home/dps/Documents/Programing/workspace/HELIOPropagation/web/common_files/images/exp_sep.png"
       inkscape:export-xdpi="99.010002"
       inkscape:export-ydpi="99.010002" />
    <path
       style="fill:none;stroke:#1300f7;stroke-width:0.875;stroke-linecap:butt;stroke-linejoin:round;stroke-miterlimit:4;stroke-opacity:1;stroke-dasharray:none;stroke-dashoffset:0"
       d="m 488.74837,509.04934 c 11.79972,-0.5263 21.28125,-16.61299 21.28125,-36.40625 0,-19.79354 -9.48128,-35.88039 -21.28125,-36.40625"
       id="path5509"
       inkscape:connector-curvature="0"
       sodipodi:nodetypes="csc"
       inkscape:export-filename="/home/dps/Documents/Programing/workspace/HELIOPropagation/web/common_files/images/exp_sep.png"
       inkscape:export-xdpi="99.010002"
       inkscape:export-ydpi="99.010002" />
    <path
       transform="matrix(-0.13674797,0.1046167,0.21663866,0.2831756,518.7521,311.9914)"
       sodipodi:type="arc"
       style="fill:#ffffff;fill-opacity:1;stroke:none;filter:url(#filter5503)"
       id="path5473"
       sodipodi:cx="569.40399"
       sodipodi:cy="284.1929"
       sodipodi:rx="36.440296"
       sodipodi:ry="36.440296"
       d="m 605.84429,284.1929 a 36.440296,36.440296 0 1 1 -72.88059,0 36.440296,36.440296 0 1 1 72.88059,0 z"
       inkscape:tile-x0="532.9637"
       inkscape:tile-y0="247.75261"
       inkscape:export-filename="/home/dps/Documents/Programing/workspace/HELIOPropagation/web/common_files/images/exp_sep.png"
       inkscape:export-xdpi="99.010002"
       inkscape:export-ydpi="99.010002" />
    <text
       sodipodi:linespacing="125%"
       id="text6560"
       y="518.96503"
       x="544.6925"
       style="font-size:11px;font-style:normal;font-variant:normal;font-weight:normal;font-stretch:normal;line-height:125%;letter-spacing:0px;word-spacing:0px;fill:#000000;fill-opacity:1;stroke:none;font-family:Courier 10 Pitch;-inkscape-font-specification:Courier 10 Pitch"
       xml:space="preserve"
       inkscape:export-filename="/home/dps/Documents/Programing/workspace/HELIOPropagation/web/common_files/images/exp_sep.png"
       inkscape:export-xdpi="99.010002"
       inkscape:export-ydpi="99.010002"><tspan
         y="518.96503"
         x="544.6925"
         id="tspan6562"
         sodipodi:role="line">flare </tspan><tspan
         y="532.71503"
         x="544.6925"
         sodipodi:role="line"
         id="tspan6580">longitude</tspan><tspan
         y="546.46503"
         x="544.6925"
         sodipodi:role="line"
         id="tspan6578" /></text>
    <path
       style="fill:none;stroke:#0000dd;stroke-width:0.69999999;stroke-linecap:butt;stroke-linejoin:miter;stroke-miterlimit:4;stroke-opacity:1;stroke-dasharray:none;marker-end:url(#Arrow1Lend)"
       d="m 539.75323,522.46 c -13.99042,6.06127 -21.89177,-26.02582 -27.75803,-40.44691"
       id="path6564"
       inkscape:connector-curvature="0"
       sodipodi:nodetypes="cc"
       inkscape:export-filename="/home/dps/Documents/Programing/workspace/HELIOPropagation/web/common_files/images/exp_sep.png"
       inkscape:export-xdpi="99.010002"
       inkscape:export-ydpi="99.010002" />
    <text
       xml:space="preserve"
       style="font-size:11px;font-style:normal;font-variant:normal;font-weight:normal;font-stretch:normal;line-height:125%;letter-spacing:0px;word-spacing:0px;fill:#000000;fill-opacity:1;stroke:none;font-family:Courier 10 Pitch;-inkscape-font-specification:Courier 10 Pitch"
       x="436.04718"
       y="455.58896"
       id="text6643"
       sodipodi:linespacing="125%"
       inkscape:export-filename="/home/dps/Documents/Programing/workspace/HELIOPropagation/web/common_files/images/exp_sep.png"
       inkscape:export-xdpi="99.010002"
       inkscape:export-ydpi="99.010002"><tspan
         sodipodi:role="line"
         id="tspan6645"
         x="436.04718"
         y="455.58896">Sun</tspan></text>
    <path
       sodipodi:type="arc"
       style="fill:#f8cc1d;fill-opacity:1;fill-rule:evenodd;stroke:none"
       id="path2985"
       sodipodi:cx="115.38461"
       sodipodi:cy="178.51602"
       sodipodi:rx="25.04434"
       sodipodi:ry="25.04434"
       d="m 140.42895,178.51602 a 25.04434,25.04434 0 1 1 -50.088677,0 25.04434,25.04434 0 1 1 50.088677,0 z"
       transform="translate(134.2247,122.06414)"
       inkscape:export-filename="/home/dps/Documents/Programing/workspace/HELIOPropagation/web/common_files/images/exp_sep.png"
       inkscape:export-xdpi="99.010002"
       inkscape:export-ydpi="99.010002" />
    <path
       transform="matrix(0.53927868,0,0,0.53927868,314.30793,275.84874)"
       d="m 140.42895,178.51602 a 25.04434,25.04434 0 1 1 -50.088677,0 25.04434,25.04434 0 1 1 50.088677,0 z"
       sodipodi:ry="25.04434"
       sodipodi:rx="25.04434"
       sodipodi:cy="178.51602"
       sodipodi:cx="115.38461"
       id="path3755"
       style="fill:#006aff;fill-opacity:1;fill-rule:evenodd;stroke:none"
       sodipodi:type="arc"
       inkscape:export-filename="/home/dps/Documents/Programing/workspace/HELIOPropagation/web/common_files/images/exp_sep.png"
       inkscape:export-xdpi="99.010002"
       inkscape:export-ydpi="99.010002" />
    <path
       style="fill:none;stroke:#000000;stroke-width:0.69999999;stroke-linecap:butt;stroke-linejoin:miter;stroke-miterlimit:4;stroke-opacity:1;stroke-dasharray:2.1, 0.7;stroke-dashoffset:0"
       d="M 249.60932,300.96478 375.76316,371.3494"
       id="path3757"
       inkscape:connector-curvature="0"
       sodipodi:nodetypes="cc"
       inkscape:export-filename="/home/dps/Documents/Programing/workspace/HELIOPropagation/web/common_files/images/exp_sep.png"
       inkscape:export-xdpi="99.010002"
       inkscape:export-ydpi="99.010002" />
    <path
       sodipodi:nodetypes="cc"
       inkscape:connector-curvature="0"
       id="path3765"
       d="m 261.5245,291.43519 c 115.9896,-51.15615 143.65119,27.29354 124.10231,67.72941"
       style="fill:none;stroke:#000000;stroke-width:0.60000002;stroke-linecap:butt;stroke-linejoin:miter;stroke-miterlimit:4;stroke-opacity:1;stroke-dasharray:none;marker-start:url(#DotL);marker-mid:none;marker-end:none"
       inkscape:transform-center-x="-69.51276"
       inkscape:transform-center-y="-21.998685"
       inkscape:export-filename="/home/dps/Documents/Programing/workspace/HELIOPropagation/web/common_files/images/exp_sep.png"
       inkscape:export-xdpi="99.010002"
       inkscape:export-ydpi="99.010002" />
    <path
       style="fill:#000080;fill-opacity:1;fill-rule:evenodd;stroke:none"
       d="m 292.67537,286.43091 -1.90717,0.46287 c 3.90648,11.70792 2.65439,24.51264 -3.45871,35.23485 l 1.4933,0.83033 c 6.93766,-12.16843 8.30596,-23.24096 3.87258,-36.52805 z"
       id="path4577"
       inkscape:connector-curvature="0"
       inkscape:transform-center-x="-44.386932"
       inkscape:transform-center-y="4.9278723"
       sodipodi:nodetypes="ccccc"
       inkscape:export-filename="/home/dps/Documents/Programing/workspace/HELIOPropagation/web/common_files/images/exp_sep.png"
       inkscape:export-xdpi="99.010002"
       inkscape:export-ydpi="99.010002" />
    <text
       xml:space="preserve"
       style="font-size:11px;font-style:normal;font-variant:normal;font-weight:normal;font-stretch:normal;line-height:125%;letter-spacing:0px;word-spacing:0px;fill:#000000;fill-opacity:1;stroke:none;font-family:Courier 10 Pitch;-inkscape-font-specification:Courier 10 Pitch"
       x="319.0787"
       y="321.87601"
       id="text4587"
       sodipodi:linespacing="125%"
       inkscape:export-filename="/home/dps/Documents/Programing/workspace/HELIOPropagation/web/common_files/images/exp_sep.png"
       inkscape:export-xdpi="99.010002"
       inkscape:export-ydpi="99.010002"><tspan
         sodipodi:role="line"
         id="tspan4589"
         x="319.0787"
         y="321.87601">longitude</tspan></text>
    <text
       sodipodi:linespacing="125%"
       id="text4608"
       y="282.66348"
       x="208.13013"
       style="font-size:11px;font-style:normal;font-variant:normal;font-weight:normal;font-stretch:normal;line-height:125%;letter-spacing:0px;word-spacing:0px;fill:#000000;fill-opacity:1;stroke:none;font-family:Courier 10 Pitch;-inkscape-font-specification:Courier 10 Pitch"
       xml:space="preserve"
       inkscape:export-filename="/home/dps/Documents/Programing/workspace/HELIOPropagation/web/common_files/images/exp_sep.png"
       inkscape:export-xdpi="99.010002"
       inkscape:export-ydpi="99.010002"><tspan
         y="282.66348"
         x="208.13013"
         id="tspan4610"
         sodipodi:role="line">Sun</tspan></text>
    <text
       xml:space="preserve"
       style="font-size:11px;font-style:normal;font-variant:normal;font-weight:normal;font-stretch:normal;line-height:125%;letter-spacing:0px;word-spacing:0px;fill:#000000;fill-opacity:1;stroke:none;font-family:Courier 10 Pitch;-inkscape-font-specification:Courier 10 Pitch"
       x="328.12924"
       y="384.75342"
       id="text4612"
       sodipodi:linespacing="125%"
       inkscape:export-filename="/home/dps/Documents/Programing/workspace/HELIOPropagation/web/common_files/images/exp_sep.png"
       inkscape:export-xdpi="99.010002"
       inkscape:export-ydpi="99.010002"><tspan
         sodipodi:role="line"
         id="tspan4614"
         x="328.12924"
         y="384.75342">Earth</tspan></text>
    <path
       sodipodi:nodetypes="cc"
       inkscape:connector-curvature="0"
       id="path6542"
       d="m 330.78828,326.41152 c -13.99042,6.06127 -22.67219,-1.83287 -36.08248,-14.43299"
       style="fill:none;stroke:#0000dd;stroke-width:0.69999999;stroke-linecap:butt;stroke-linejoin:miter;stroke-miterlimit:4;stroke-opacity:1;stroke-dasharray:none;marker-end:url(#Arrow1Lend)"
       inkscape:export-filename="/home/dps/Documents/Programing/workspace/HELIOPropagation/web/common_files/images/exp_sep.png"
       inkscape:export-xdpi="99.010002"
       inkscape:export-ydpi="99.010002" />
    <path
       transform="translate(134.2247,122.06414)"
       d="m 140.42895,178.51602 a 25.04434,25.04434 0 1 1 -50.088677,0 25.04434,25.04434 0 1 1 50.088677,0 z"
       sodipodi:ry="25.04434"
       sodipodi:rx="25.04434"
       sodipodi:cy="178.51602"
       sodipodi:cx="115.38461"
       id="path6649"
       style="fill:none;stroke:#00120f;stroke-width:1px;stroke-linecap:butt;stroke-linejoin:miter;stroke-opacity:1"
       sodipodi:type="arc"
       inkscape:export-filename="/home/dps/Documents/Programing/workspace/HELIOPropagation/web/common_files/images/exp_sep.png"
       inkscape:export-xdpi="99.010002"
       inkscape:export-ydpi="99.010002" />
    <g
       id="g6689"
       transform="translate(-10.10252,102.56569)"
       style="opacity:0.4453125"
       inkscape:export-filename="/home/dps/Documents/Programing/workspace/HELIOPropagation/web/common_files/images/exp_sep.png"
       inkscape:export-xdpi="99.010002"
       inkscape:export-ydpi="99.010002">
      <path
         inkscape:tile-y0="122.97489"
         inkscape:tile-x0="184.61111"
         transform="translate(144.74016,19.061604)"
         d="m 140.42895,178.51602 c 0,13.83161 -11.21273,25.04434 -25.04434,25.04434 -13.8316,0 -25.044337,-11.21273 -25.044337,-25.04434 0,-13.83161 11.212737,-25.04434 25.044337,-25.04434 13.83161,0 25.04434,11.21273 25.04434,25.04434 z"
         sodipodi:ry="25.04434"
         sodipodi:rx="25.04434"
         sodipodi:cy="178.51602"
         sodipodi:cx="115.38461"
         id="use6663"
         style="opacity:0.5703125;fill:none;stroke:#00120f;stroke-width:0.30000001;stroke-linecap:butt;stroke-linejoin:miter;stroke-miterlimit:4;stroke-opacity:1;stroke-dasharray:none"
         sodipodi:type="arc" />
      <path
         inkscape:tile-y0="122.97489"
         inkscape:tile-x0="184.61111"
         transform="matrix(0.8,0,0,0.8,167.81708,54.764808)"
         d="m 140.42895,178.51602 c 0,13.83161 -11.21273,25.04434 -25.04434,25.04434 -13.8316,0 -25.044337,-11.21273 -25.044337,-25.04434 0,-13.83161 11.212737,-25.04434 25.044337,-25.04434 13.83161,0 25.04434,11.21273 25.04434,25.04434 z"
         sodipodi:ry="25.04434"
         sodipodi:rx="25.04434"
         sodipodi:cy="178.51602"
         sodipodi:cx="115.38461"
         id="use6665"
         style="opacity:0.5703125;fill:none;stroke:#00120f;stroke-width:0.30000001;stroke-linecap:butt;stroke-linejoin:miter;stroke-miterlimit:4;stroke-opacity:1;stroke-dasharray:none"
         sodipodi:type="arc" />
      <path
         inkscape:tile-y0="122.97489"
         inkscape:tile-x0="184.61111"
         transform="matrix(0.6,0,0,0.6,190.894,90.468014)"
         d="m 140.42895,178.51602 c 0,13.83161 -11.21273,25.04434 -25.04434,25.04434 -13.8316,0 -25.044337,-11.21273 -25.044337,-25.04434 0,-13.83161 11.212737,-25.04434 25.044337,-25.04434 13.83161,0 25.04434,11.21273 25.04434,25.04434 z"
         sodipodi:ry="25.04434"
         sodipodi:rx="25.04434"
         sodipodi:cy="178.51602"
         sodipodi:cx="115.38461"
         id="use6667"
         style="opacity:0.5703125;fill:none;stroke:#00120f;stroke-width:0.30000001;stroke-linecap:butt;stroke-linejoin:miter;stroke-miterlimit:4;stroke-opacity:1;stroke-dasharray:none"
         sodipodi:type="arc" />
      <path
         inkscape:tile-y0="122.97489"
         inkscape:tile-x0="184.61111"
         transform="matrix(0.4,0,0,0.4,213.97092,126.17121)"
         d="m 140.42895,178.51602 c 0,13.83161 -11.21273,25.04434 -25.04434,25.04434 -13.8316,0 -25.044337,-11.21273 -25.044337,-25.04434 0,-13.83161 11.212737,-25.04434 25.044337,-25.04434 13.83161,0 25.04434,11.21273 25.04434,25.04434 z"
         sodipodi:ry="25.04434"
         sodipodi:rx="25.04434"
         sodipodi:cy="178.51602"
         sodipodi:cx="115.38461"
         id="use6669"
         style="opacity:0.5703125;fill:none;stroke:#00120f;stroke-width:0.30000001;stroke-linecap:butt;stroke-linejoin:miter;stroke-miterlimit:4;stroke-opacity:1;stroke-dasharray:none"
         sodipodi:type="arc" />
      <path
         inkscape:tile-y0="122.97489"
         inkscape:tile-x0="184.61111"
         transform="matrix(0.2,0,0,0.2,237.04785,161.87442)"
         d="m 140.42895,178.51602 c 0,13.83161 -11.21273,25.04434 -25.04434,25.04434 -13.8316,0 -25.044337,-11.21273 -25.044337,-25.04434 0,-13.83161 11.212737,-25.04434 25.044337,-25.04434 13.83161,0 25.04434,11.21273 25.04434,25.04434 z"
         sodipodi:ry="25.04434"
         sodipodi:rx="25.04434"
         sodipodi:cy="178.51602"
         sodipodi:cx="115.38461"
         id="use6671"
         style="opacity:0.5703125;fill:none;stroke:#00120f;stroke-width:0.30000001;stroke-linecap:butt;stroke-linejoin:miter;stroke-miterlimit:4;stroke-opacity:1;stroke-dasharray:none"
         sodipodi:type="arc" />
      <path
         inkscape:tile-y0="147.77766"
         inkscape:tile-x0="184.0095"
         sodipodi:nodetypes="cc"
         inkscape:connector-curvature="0"
         id="use6675"
         d="m 234.86856,197.57762 50.51241,0"
         style="opacity:0.5703125;fill:none;stroke:#000000;stroke-width:0.40000001;stroke-linecap:butt;stroke-linejoin:miter;stroke-miterlimit:4;stroke-opacity:1;stroke-dasharray:none" />
      <path
         inkscape:tile-y0="147.77766"
         inkscape:tile-x0="184.0095"
         sodipodi:nodetypes="cc"
         inkscape:connector-curvature="0"
         id="use6677"
         d="m 238.25225,184.94952 43.74503,25.25621"
         style="opacity:0.5703125;fill:none;stroke:#000000;stroke-width:0.40000001;stroke-linecap:butt;stroke-linejoin:miter;stroke-miterlimit:4;stroke-opacity:1;stroke-dasharray:none" />
      <path
         inkscape:tile-y0="147.77766"
         inkscape:tile-x0="184.0095"
         sodipodi:nodetypes="cc"
         inkscape:connector-curvature="0"
         id="use6679"
         d="m 247.49666,175.70511 25.25621,43.74503"
         style="opacity:0.5703125;fill:none;stroke:#000000;stroke-width:0.40000001;stroke-linecap:butt;stroke-linejoin:miter;stroke-miterlimit:4;stroke-opacity:1;stroke-dasharray:none" />
      <path
         inkscape:tile-y0="147.77766"
         inkscape:tile-x0="184.0095"
         sodipodi:nodetypes="cc"
         inkscape:connector-curvature="0"
         id="use6681"
         d="m 260.12477,172.32142 0,50.51241"
         style="opacity:0.5703125;fill:none;stroke:#000000;stroke-width:0.40000001;stroke-linecap:butt;stroke-linejoin:miter;stroke-miterlimit:4;stroke-opacity:1;stroke-dasharray:none" />
      <path
         inkscape:tile-y0="147.77766"
         inkscape:tile-x0="184.0095"
         sodipodi:nodetypes="cc"
         inkscape:connector-curvature="0"
         id="use6683"
         d="m 272.75287,175.70511 -25.2562,43.74503"
         style="opacity:0.5703125;fill:none;stroke:#000000;stroke-width:0.40000001;stroke-linecap:butt;stroke-linejoin:miter;stroke-miterlimit:4;stroke-opacity:1;stroke-dasharray:none" />
      <path
         inkscape:tile-y0="147.77766"
         inkscape:tile-x0="184.0095"
         sodipodi:nodetypes="cc"
         inkscape:connector-curvature="0"
         id="use6685"
         d="m 281.99729,184.94952 -43.74503,25.25621"
         style="opacity:0.5703125;fill:none;stroke:#000000;stroke-width:0.40000001;stroke-linecap:butt;stroke-linejoin:miter;stroke-miterlimit:4;stroke-opacity:1;stroke-dasharray:none" />
      <path
         inkscape:tile-y0="147.77766"
         inkscape:tile-x0="184.0095"
         sodipodi:nodetypes="cc"
         inkscape:connector-curvature="0"
         id="use6687"
         d="m 285.38097,197.57763 -50.51241,0"
         style="opacity:0.5703125;fill:none;stroke:#000000;stroke-width:0.40000001;stroke-linecap:butt;stroke-linejoin:miter;stroke-miterlimit:4;stroke-opacity:1;stroke-dasharray:none" />
    </g>
    <path
       style="fill:none;stroke:#f60000;stroke-width:1px;stroke-linecap:butt;stroke-linejoin:miter;stroke-opacity:1"
       d="m 272.89694,285.00841 c 1.20087,-0.90065 2.40173,-1.8013 3.6026,-2.70195 0.30022,0 0.63213,0.13426 0.90065,0 0.37975,-0.18987 0.5209,-0.71078 0.90065,-0.90065 0.26852,-0.13426 0.60043,0 0.90065,0 0.30022,-0.30022 0.5209,-0.71078 0.90065,-0.90065 0.3571,-0.17855 2.51782,0.18413 2.70195,0 0.21229,-0.21229 -0.21229,-0.68837 0,-0.90065 0.21229,-0.21229 0.60043,0 0.90065,0 0.62644,0 4.17754,-0.16285 4.50325,0 0.23913,0.11957 2.58238,2.46282 2.70195,2.70195 0.13705,0.2741 0,2.29633 0,2.70195 0,0.30022 0,0.60043 0,0.90065 0,0.30022 0.21229,0.68836 0,0.90065 -0.21229,0.21228 -0.68836,-0.21229 -0.90065,0 -0.21229,0.21228 0.21229,0.68836 0,0.90065 -0.21229,0.21228 -0.68836,-0.21229 -0.90065,0 -0.21229,0.21228 0.21229,0.68836 0,0.90065 -0.21229,0.21228 -0.60043,0 -0.90065,0 -0.30022,0 -0.60043,0 -0.90065,0 -0.21843,0 -2.67299,0.029 -2.70195,0 -0.21229,-0.21229 0.13426,-0.63213 0,-0.90065 -0.18987,-0.37975 -0.71078,-0.5209 -0.90065,-0.90065 -0.26852,-0.53704 0.26852,-1.26426 0,-1.8013 -0.18987,-0.37975 -0.71078,-0.5209 -0.90065,-0.90065 -0.13426,-0.26852 0,-0.60043 0,-0.90065 0,-0.30022 0,-0.60043 0,-0.90065 0,-0.21843 -0.029,-2.67299 0,-2.70195 0.21229,-0.21229 0.68836,0.21228 0.90065,0 0.21229,-0.21229 -0.21229,-0.68837 0,-0.90065 0.21229,-0.21229 0.68836,0.21228 0.90065,0 0.42457,-0.42457 -0.42457,-1.37673 0,-1.8013 0.21229,-0.21229 0.63213,0.13426 0.90065,0 0.37975,-0.18987 0.5209,-0.71078 0.90065,-0.90065 0.26852,-0.13426 0.68836,0.21228 0.90065,0 0.21229,-0.21229 -0.21229,-0.68836 0,-0.90065 0.21229,-0.21229 0.63213,0.13426 0.90065,0 0.37975,-0.18987 0.5209,-0.71078 0.90065,-0.90065 0.53704,-0.26852 1.26426,0.26852 1.8013,0 0.37975,-0.18987 0.5209,-0.71078 0.90065,-0.90065 0.2741,-0.13705 2.29634,0 2.70195,0 1.8013,0 3.6026,0 5.4039,0 1.50108,0 3.00217,0 4.50325,0 0.30022,0 0.68836,-0.21229 0.90065,0 0.21228,0.21229 -0.21229,0.68836 0,0.90065 0.21228,0.21229 0.68836,-0.21229 0.90065,0 0.42457,0.42457 -0.42457,1.37673 0,1.8013 0.21228,0.21228 0.68836,-0.21229 0.90065,0 0.21228,0.21228 0,0.60043 0,0.90065 0,0.42465 0.0408,4.46243 0,4.50325 -0.21229,0.21228 -0.68837,-0.21229 -0.90065,0 -0.21229,0.21228 0.21228,0.68836 0,0.90065 -0.21229,0.21228 -0.60043,0 -0.90065,0 -0.30022,0 -0.63213,0.13426 -0.90065,0 -0.37975,-0.18987 -1.20087,-0.60043 -0.90065,-0.90065 0.30022,-0.30022 0.90065,1.32522 0.90065,0.90065 0,-0.67131 -0.42597,-1.32662 -0.90065,-1.8013 -0.21229,-0.21229 -0.68837,0.21228 -0.90065,0 -0.21229,-0.21229 0,-0.60043 0,-0.90065 0,-0.30022 0,-0.60043 0,-0.90065 0,-0.21843 -0.029,-2.67299 0,-2.70195 0.21228,-0.21229 0.68836,0.21228 0.90065,0 0.21228,-0.21229 -0.21229,-0.68836 0,-0.90065 0.21228,-0.21229 0.68836,0.21229 0.90065,0 0.21228,-0.21229 -0.21229,-0.68836 0,-0.90065 0.21228,-0.21229 0.63213,0.13426 0.90065,0 0.37975,-0.18987 0.5209,-0.71078 0.90065,-0.90065 0.26852,-0.13426 0.63213,0.13426 0.90065,0 0.37975,-0.18987 0.5209,-0.71078 0.90065,-0.90065 0.26852,-0.13426 0.63213,0.13426 0.90065,0 0.37975,-0.18987 0.5209,-0.71078 0.90065,-0.90065 0.53704,-0.26852 1.37673,0.42457 1.8013,0 0.21228,-0.21229 -0.21229,-0.68836 0,-0.90065 0.31614,-0.31615 3.88114,0.31105 4.50325,0 0.37975,-0.18987 0.5209,-0.71078 0.90065,-0.90065 0.23682,-0.11841 3.13163,0 3.6026,0 0.63838,0 5.17104,-0.11643 5.4039,0 0.37975,0.18987 0.5209,0.71078 0.90065,0.90065 0.53704,0.26852 1.26425,-0.26852 1.8013,0 0.37975,0.18987 0.5209,0.71078 0.90065,0.90065 0.53704,0.26852 1.26425,-0.26852 1.8013,0 0.37975,0.18987 0.5209,0.71078 0.90065,0.90065 0.26852,0.13426 0.68836,-0.21229 0.90065,0 0.42457,0.42457 -0.42457,1.37673 0,1.8013 0.21228,0.21229 0.68836,-0.21229 0.90065,0 0.42457,0.42457 -0.26852,1.26426 0,1.8013 0.18987,0.37975 0.71077,0.5209 0.90065,0.90065 0.0384,0.0768 0.0384,3.52582 0,3.6026 -0.18988,0.37975 -0.5209,0.71078 -0.90065,0.90065 -0.2741,0.13705 -2.29634,0 -2.70195,0 -0.30022,0 -0.68837,0.21228 -0.90065,0 -0.21229,-0.21229 0.21228,-0.68837 0,-0.90065 -0.21229,-0.21229 -0.68837,0.21228 -0.90065,0 -0.0362,-0.0362 0,-3.27185 0,-3.6026 0,-2.40173 -0.30022,0.30022 0.90065,-0.90065 0.42457,-0.42457 -0.42457,-1.37673 0,-1.8013 0.21228,-0.21229 0.63213,0.13426 0.90065,0 1.08078,-0.54039 1.62117,-2.16156 2.70195,-2.70195 0.26852,-0.13426 0.63213,0.13426 0.90065,0 0.37975,-0.18987 0.5209,-0.71078 0.90065,-0.90065 0.26852,-0.13426 0.63213,0.13426 0.90065,0 0.37975,-0.18987 0.5209,-0.71078 0.90065,-0.90065 0.26852,-0.13426 0.60043,0 0.90065,0 0.30021,-0.30022 0.5209,-0.71078 0.90065,-0.90065 0.2741,-0.13705 2.29633,0 2.70195,0 0.42465,0 4.46243,-0.0408 4.50325,0 0.21228,0.21229 -0.21229,0.68836 0,0.90065 0.21228,0.21229 0.68836,-0.21229 0.90065,0 0.21228,0.21229 -0.21229,0.68836 0,0.90065 0.21228,0.21229 0.63213,-0.13426 0.90065,0 0.48102,0.24051 2.22779,2.22779 2.70195,2.70195 0.30021,0.30022 0.60043,0.60043 0.90065,0.90065 0.30021,0.30022 0.71077,0.5209 0.90065,0.90065 0.13426,0.26852 -0.21229,0.68836 0,0.90065 0.21228,0.21228 0.68836,-0.21229 0.90065,0 0.21228,0.21228 0,0.60043 0,0.90065 0,2.10152 0,4.20303 0,6.30455 0,0.30022 0,0.60043 0,0.90065 0,0.30022 0.21228,0.68836 0,0.90065 -0.21229,0.21228 -0.68837,-0.21229 -0.90065,0 -0.21229,0.21228 0.21228,0.68836 0,0.90065 -0.21229,0.21228 -0.68837,-0.21229 -0.90065,0 -0.21229,0.21228 0.21228,0.68836 0,0.90065 -0.0901,0.0901 -2.61189,0.0901 -2.70195,0 -0.21229,-0.21229 0.21228,-0.68837 0,-0.90065 -0.21229,-0.21229 -0.68837,0.21228 -0.90065,0 -0.21229,-0.21229 0.21228,-0.68837 0,-0.90065 -0.21229,-0.21229 -0.68837,0.21228 -0.90065,0 -0.21229,-0.21229 0.21228,-0.68837 0,-0.90065 -0.21229,-0.21229 -0.68837,0.21228 -0.90065,0 -0.0901,-0.0901 -0.0901,-2.61189 0,-2.70195 0.21228,-0.21229 0.68836,0.21228 0.90065,0 0.21228,-0.21229 -0.13426,-0.63213 0,-0.90065 0.99569,-1.99139 0.55898,-0.27949 1.8013,-0.90065 0.37975,-0.18987 0.5209,-0.71078 0.90065,-0.90065 0.26852,-0.13426 0.63213,0.13426 0.90065,0 0.37975,-0.18987 0.5209,-0.71078 0.90065,-0.90065 0.53704,-0.26852 1.26425,0.26852 1.8013,0 0.37974,-0.18987 0.5209,-0.71078 0.90065,-0.90065 0.53704,-0.26852 1.37673,0.42457 1.8013,0 0.21228,-0.21229 -0.21229,-0.68837 0,-0.90065 0.21228,-0.21229 0.60043,0 0.90065,0 1.50108,0 3.00216,0 4.50325,0 0.21843,0 2.67298,-0.029 2.70195,0 0.21228,0.21228 -0.21229,0.68836 0,0.90065 0.21228,0.21228 0.68836,-0.21229 0.90065,0 0.21228,0.21228 -0.21229,0.68836 0,0.90065 0.21228,0.21228 0.68836,-0.21229 0.90065,0 0.21228,0.21228 -0.13426,0.63213 0,0.90065 0.18987,0.37975 0.71077,0.5209 0.90065,0.90065 0.13426,0.26852 -0.13426,0.63213 0,0.90065 0.18987,0.37975 0.71077,0.5209 0.90065,0.90065 0.26852,0.53704 -0.42457,1.37673 0,1.8013 0.21228,0.21228 0.68836,-0.21229 0.90065,0 0.029,0.029 0,2.48352 0,2.70195 0,0.47097 0.11841,3.36578 0,3.6026 -0.18988,0.37975 -0.71078,0.5209 -0.90065,0.90065 -0.13426,0.26852 0.21228,0.68836 0,0.90065 -0.21229,0.21228 -0.68837,-0.21229 -0.90065,0 -0.42457,0.42457 0.42457,1.37673 0,1.8013 -0.21229,0.21228 -0.68837,-0.21229 -0.90065,0 -0.21229,0.21228 0.21228,0.68836 0,0.90065 -0.029,0.029 -2.48352,0 -2.70195,0 -0.30022,0 -0.60044,0 -0.90065,0 -0.30022,0 -0.68837,0.21228 -0.90065,0 -0.21229,-0.21229 0.21228,-0.68837 0,-0.90065 -0.21229,-0.21229 -0.68837,0.21228 -0.90065,0 -0.21229,-0.21229 0,-0.60043 0,-0.90065 0,-0.30022 0,-0.60043 0,-0.90065 0,-0.30022 -0.13426,-0.63213 0,-0.90065 0.37974,-0.7595 1.42155,-1.04181 1.8013,-1.8013 0.13426,-0.26852 -0.21229,-0.68837 0,-0.90065 0.42457,-0.42457 1.37673,0.42457 1.8013,0 0.21228,-0.21229 -0.21229,-0.68837 0,-0.90065 0.21228,-0.21229 0.63213,0.13426 0.90065,0 0.37974,-0.18987 0.5209,-0.71078 0.90065,-0.90065 0.26852,-0.13426 0.68836,0.21228 0.90065,0 0.21228,-0.21229 -0.21229,-0.68837 0,-0.90065 0.21228,-0.21229 0.63213,0.13426 0.90065,0 0.37974,-0.18987 0.5209,-0.71078 0.90065,-0.90065 0.53704,-0.26852 1.37673,0.42457 1.8013,0 0.21228,-0.21229 -0.21229,-0.68837 0,-0.90065 0.21228,-0.21229 0.60043,0 0.90065,0 1.50108,0 3.00216,0 4.50325,0 0.21843,0 2.67298,-0.029 2.70195,0 0.21228,0.21228 -0.21229,0.68836 0,0.90065 0.21228,0.21228 0.68836,-0.21229 0.90065,0 0.21228,0.21228 -0.21229,0.68836 0,0.90065 0.21228,0.21228 0.68836,-0.21229 0.90065,0 0.42457,0.42457 -0.26853,1.26426 0,1.8013 0.18987,0.37975 0.71077,0.5209 0.90065,0.90065 0.28304,0.56608 -0.28304,3.03652 0,3.6026 0.18987,0.37975 0.71077,0.5209 0.90065,0.90065 0.11841,0.23682 0,3.13163 0,3.6026 0,0.40561 0.13705,2.42785 0,2.70195 -0.18988,0.37975 -0.71078,0.5209 -0.90065,0.90065 -0.26853,0.53704 0.42457,1.37673 0,1.8013 -0.21229,0.21228 -0.68837,-0.21229 -0.90065,0 -0.21229,0.21228 0.13426,0.63213 0,0.90065 -0.18988,0.37975 -0.71078,0.5209 -0.90065,0.90065 -0.13426,0.26852 0.21228,0.68836 0,0.90065 -0.21229,0.21228 -0.68837,-0.21229 -0.90065,0 -0.21229,0.21228 0.21228,0.68836 0,0.90065 -0.21229,0.21228 -0.68837,-0.21229 -0.90065,0 -0.21229,0.21228 0.21228,0.68836 0,0.90065 -0.21229,0.21228 -0.60044,0 -0.90065,0 -0.42466,0 -4.46243,0.0408 -4.50325,0 -0.21229,-0.21229 0.21228,-0.68837 0,-0.90065 -0.21229,-0.21229 -0.68837,0.21228 -0.90065,0 -0.029,-0.029 0,-2.48352 0,-2.70195 0,-0.21843 -0.029,-2.67299 0,-2.70195 0.21228,-0.21229 0.68836,0.21228 0.90065,0 0.21228,-0.21229 -0.21229,-0.68837 0,-0.90065 0.21228,-0.21229 0.68836,0.21228 0.90065,0 0.21228,-0.21229 -0.21229,-0.68837 0,-0.90065 0.21228,-0.21229 0.63212,0.13426 0.90065,0 0.37974,-0.18987 0.5209,-0.71078 0.90065,-0.90065 0.26852,-0.13426 0.63212,0.13426 0.90065,0 0.37974,-0.18987 0.5209,-0.71078 0.90065,-0.90065 0.53704,-0.26852 1.26425,0.26852 1.8013,0 0.37974,-0.18987 0.5209,-0.71078 0.90065,-0.90065 0.38465,-0.19233 4.14721,0 4.50325,0 0.42465,0 4.46243,-0.0408 4.50325,0 0.21228,0.21228 -0.13426,0.63213 0,0.90065 0.44313,0.88626 3.15946,2.71633 3.6026,3.6026 0.13426,0.26852 -0.21229,0.68836 0,0.90065 0.21228,0.21228 0.68836,-0.21229 0.90065,0 0.21228,0.21228 -0.13426,0.63213 0,0.90065 0.18987,0.37975 0.71077,0.5209 0.90065,0.90065 0.13426,0.26852 -0.21229,0.68836 0,0.90065 0.21228,0.21228 0.68836,-0.21229 0.90065,0 0.21228,0.21228 0,0.60043 0,0.90065 0,0.62644 0.16285,4.17754 0,4.50325 -0.37975,0.75949 -1.42156,1.0418 -1.8013,1.8013 -0.13426,0.26852 0.21228,0.68836 0,0.90065 -0.21229,0.21228 -0.68837,-0.21229 -0.90065,0 -1.86348,1.86348 2.84764,-0.0728 -0.90065,1.8013 -0.26853,0.13426 -0.68837,-0.21229 -0.90065,0 -0.21229,0.21228 0.21228,0.68836 0,0.90065 -0.21229,0.21228 -0.68837,-0.21229 -0.90065,0 -0.21229,0.21228 0.21228,0.68836 0,0.90065 -0.21229,0.21228 -0.68837,-0.21229 -0.90065,0 -0.21229,0.21228 0.21228,0.68836 0,0.90065 -0.21229,0.21228 -0.63213,-0.13426 -0.90065,0 -0.37975,0.18987 -0.52091,0.71077 -0.90065,0.90065 -0.53705,0.26852 -1.37673,-0.42457 -1.8013,0 -0.21229,0.21228 0.21228,0.68836 0,0.90065 -0.029,0.029 -2.48352,0 -2.70195,0 -0.30022,0 -0.60044,0 -0.90065,0 -0.30022,0 -0.90065,0.30021 -0.90065,0 0,-0.30022 0.90065,0.30021 0.90065,0 0,-1.46466 -1.68762,-0.22737 -0.90065,-1.8013 1.87414,-3.74829 -0.0622,0.96283 1.8013,-0.90065 0.21228,-0.21229 -0.21229,-0.68837 0,-0.90065 0.42457,-0.42457 1.37673,0.42457 1.8013,0 0.21228,-0.21229 -0.21229,-0.68837 0,-0.90065 0.42457,-0.42457 1.26425,0.26852 1.8013,0 0.37974,-0.18988 0.5209,-0.71078 0.90065,-0.90065 0.53704,-0.26852 1.37673,0.42457 1.8013,0 0.21228,-0.21229 -0.21229,-0.68837 0,-0.90065 0.21228,-0.21229 0.60043,0 0.90065,0 0.33075,0 3.56635,-0.0362 3.6026,0 0.21228,0.21228 -0.21229,0.68836 0,0.90065 0.60188,0.60188 1.19942,-0.60188 1.8013,0 0.21228,0.21228 -0.21229,0.68836 0,0.90065 0.42457,0.42457 1.37673,-0.42457 1.8013,0 0.21228,0.21228 -0.21229,0.68836 0,0.90065 0.21228,0.21228 0.68836,-0.21229 0.90065,0 0.21228,0.21228 -0.21229,0.68836 0,0.90065 0.21228,0.21228 0.68836,-0.21229 0.90065,0 0.42457,0.42457 -0.26853,1.26425 0,1.8013 0.18987,0.37975 0.71077,0.5209 0.90065,0.90065 0.0615,0.123 0.0615,5.28089 0,5.4039 -0.18988,0.37975 -0.71078,0.5209 -0.90065,0.90065 -0.26853,0.53704 0.42457,1.37673 0,1.8013 -0.21229,0.21228 -0.68837,-0.21229 -0.90065,0 -0.21229,0.21228 0.13426,0.63213 0,0.90065 -0.18988,0.37975 -0.71078,0.5209 -0.90065,0.90065 -0.13426,0.26852 0.13426,0.63213 0,0.90065 -1.87415,3.74829 0.0622,-0.96283 -1.8013,0.90065 -0.21229,0.21228 0.21228,0.68836 0,0.90065 -0.60188,0.60188 -1.19942,-0.60188 -1.8013,0 -0.21229,0.21228 0.21228,0.68836 0,0.90065 -0.21229,0.21228 -0.63213,-0.13426 -0.90065,0 -0.37975,0.18987 -0.52091,0.71077 -0.90065,0.90065 -0.53705,0.26852 -1.37673,-0.42457 -1.8013,0 -0.21229,0.21228 0.21228,0.68836 0,0.90065 -0.42457,0.42457 -1.26426,-0.26852 -1.8013,0 -0.37975,0.18987 -0.52091,0.71077 -0.90065,0.90065 -0.32571,0.16285 -3.87682,0 -4.50325,0 -0.30022,0 -0.68837,0.21228 -0.90065,0 -0.21229,-0.21229 0,-0.60044 0,-0.90065 0,-0.30022 -0.30022,-0.90065 0,-0.90065 0.30021,0 -0.30022,0.90065 0,0.90065 0.2904,0 1.30086,-1.55109 1.8013,-1.8013 0.26852,-0.13426 0.68836,0.21228 0.90065,0 0.21228,-0.21229 -0.21229,-0.68837 0,-0.90065 0.21228,-0.21229 0.60043,0 0.90065,0 2.10151,0 4.20303,0 6.30455,0 0.30021,0 0.60043,0 0.90065,0 0.30021,0 0.68836,-0.21229 0.90065,0 0.21228,0.21228 -0.21229,0.68836 0,0.90065 0.60188,0.60188 1.19942,-0.60188 1.8013,0 0.21228,0.21228 -0.21229,0.68836 0,0.90065 0.42457,0.42457 1.37673,-0.42457 1.8013,0 0.21228,0.21228 -0.21229,0.68836 0,0.90065 0.21228,0.21228 0.68836,-0.21229 0.90065,0 0.0408,0.0408 0,4.07859 0,4.50325 0,0.21843 0.029,2.67298 0,2.70195 -0.21229,0.21228 -0.68837,-0.21229 -0.90065,0 -0.42457,0.42457 0.42457,1.37673 0,1.8013 -0.21229,0.21228 -0.68837,-0.21229 -0.90065,0 -0.21229,0.21228 0.21228,0.68836 0,0.90065 -0.21229,0.21228 -0.68837,-0.21229 -0.90065,0 -0.21229,0.21228 0.21228,0.68836 0,0.90065 -0.60188,0.60188 -1.19942,-0.60188 -1.8013,0 -0.21229,0.21228 0.21228,0.68836 0,0.90065 -0.21229,0.21228 -0.63213,-0.13426 -0.90065,0 -0.37975,0.18987 -0.52091,0.71077 -0.90065,0.90065 -0.26853,0.13426 -0.63213,-0.13426 -0.90065,0 -0.37975,0.18987 -0.52091,0.71077 -0.90065,0.90065 -0.2741,0.13705 -2.29634,0 -2.70195,0 -1.50109,0 -3.00217,0 -4.50325,0 -0.30022,0 -0.68837,0.21228 -0.90065,0 -0.21229,-0.21229 0.21228,-0.68837 0,-0.90065 -0.21229,-0.21229 -0.90065,0.30021 -0.90065,0 0,-1.49354 1.26304,-0.63152 1.8013,-0.90065 0.37974,-0.18988 0.5209,-0.71078 0.90065,-0.90065 0.26852,-0.13426 0.60043,0 0.90065,0 0.30021,0 0.60043,0 0.90065,0 1.8013,0 3.6026,0 5.4039,0 0.30021,0 0.68836,-0.21229 0.90065,0 0.21228,0.21228 -0.21229,0.68836 0,0.90065 0.21228,0.21228 0.68836,-0.21229 0.90065,0 0.21228,0.21228 -0.21229,0.68836 0,0.90065 0.21228,0.21228 0.68836,-0.21229 0.90065,0 0.0408,0.0408 0,4.07859 0,4.50325 0,0.42465 0.0408,4.46243 0,4.50325 -0.21229,0.21228 -0.68837,-0.21229 -0.90065,0 -0.21229,0.21228 0.21228,0.68836 0,0.90065 -0.21229,0.21228 -0.68837,-0.21229 -0.90065,0 -0.21229,0.21228 0.21228,0.68836 0,0.90065 -0.42457,0.42457 -1.37673,-0.42457 -1.8013,0 -0.21229,0.21228 0.21228,0.68836 0,0.90065 -0.42457,0.42457 -1.37673,-0.42457 -1.8013,0 -0.21229,0.21228 0.21228,0.68836 0,0.90065 -0.42457,0.42457 -1.37673,-0.42457 -1.8013,0 -0.21229,0.21228 0.21228,0.68836 0,0.90065 -0.029,0.029 -2.48352,0 -2.70195,0 -1.20087,0 -2.40174,0 -3.6026,0 -0.30022,0 -0.90065,0.30021 -0.90065,0 0,-0.30022 0.90065,0.30021 0.90065,0 0,-3.17631 -1.8013,1.37435 -1.8013,-1.8013"
       id="path7220"
       inkscape:connector-curvature="0"
       inkscape:export-filename="/home/dps/Documents/Programing/workspace/HELIOPropagation/web/common_files/images/exp_sep.png"
       inkscape:export-xdpi="99.010002"
       inkscape:export-ydpi="99.010002" />
    <path
       sodipodi:type="star"
       style="fill:#e80f00;fill-opacity:1;stroke:#00000a;stroke-opacity:1"
       id="path7224"
       sodipodi:sides="5"
       sodipodi:cx="191.83844"
       sodipodi:cy="152.61285"
       sodipodi:r1="14.522544"
       sodipodi:r2="3.0665698"
       sodipodi:arg1="-0.51914617"
       sodipodi:arg2="0.82471522"
       inkscape:flatsided="false"
       inkscape:rounded="0"
       inkscape:randomized="0"
       d="m 204.44754,145.40765 -10.52762,9.45715 8.6675,7.51349 -12.2475,-7.08994 -4.46734,10.56508 2.95824,-13.83898 -11.42847,-0.98391 14.0758,-1.46302 -2.59584,-11.17316 5.74107,12.93478 z"
       inkscape:transform-center-x="2.5844186"
       inkscape:transform-center-y="-0.51511195"
       transform="matrix(0.60037989,0,0,0.63920297,146.54815,193.13562)"
       inkscape:export-filename="/home/dps/Documents/Programing/workspace/HELIOPropagation/web/common_files/images/exp_sep.png"
       inkscape:export-xdpi="99.010002"
       inkscape:export-ydpi="99.010002" />
    <text
       inkscape:export-ydpi="99.010002"
       inkscape:export-xdpi="99.010002"
       inkscape:export-filename="/home/dps/Documents/Programing/workspace/HELIOPropagation/web/common_files/images/exp_sep.png"
       xml:space="preserve"
       style="font-size:11px;font-style:normal;font-variant:normal;font-weight:normal;font-stretch:normal;line-height:125%;letter-spacing:0px;word-spacing:0px;fill:#000000;fill-opacity:1;stroke:none;font-family:Courier 10 Pitch;-inkscape-font-specification:Courier 10 Pitch"
       x="260.36783"
       y="271.85568"
       id="text7226"
       sodipodi:linespacing="125%"><tspan
         sodipodi:role="line"
         id="tspan7228"
         x="260.36783"
         y="271.85568">Flare</tspan></text>
    <text
       sodipodi:linespacing="125%"
       id="text7230"
       y="286.26608"
       x="385.5582"
       style="font-size:11px;font-style:normal;font-variant:normal;font-weight:normal;font-stretch:normal;line-height:125%;letter-spacing:0px;word-spacing:0px;fill:#000000;fill-opacity:1;stroke:none;font-family:Courier 10 Pitch;-inkscape-font-specification:Courier 10 Pitch"
       xml:space="preserve"
       inkscape:export-filename="/home/dps/Documents/Programing/workspace/HELIOPropagation/web/common_files/images/exp_sep.png"
       inkscape:export-xdpi="99.010002"
       inkscape:export-ydpi="99.010002"><tspan
         y="286.26608"
         x="385.5582"
         id="tspan7232"
         sodipodi:role="line">Parker's Spiral at v<tspan
   style="font-size:65%;baseline-shift:sub"
   id="tspan6053">sw</tspan></tspan></text>
    <path
       transform="matrix(0.60037989,0,0,0.63920297,391.52494,357.05391)"
       inkscape:transform-center-y="-0.51511195"
       inkscape:transform-center-x="2.5844186"
       d="m 204.44754,145.40765 -10.52762,9.45715 8.6675,7.51349 -12.2475,-7.08994 -4.46734,10.56508 2.95824,-13.83898 -11.42847,-0.98391 14.0758,-1.46302 -2.59584,-11.17316 5.74107,12.93478 z"
       inkscape:randomized="0"
       inkscape:rounded="0"
       inkscape:flatsided="false"
       sodipodi:arg2="0.82471522"
       sodipodi:arg1="-0.51914617"
       sodipodi:r2="3.0665698"
       sodipodi:r1="14.522544"
       sodipodi:cy="152.61285"
       sodipodi:cx="191.83844"
       sodipodi:sides="5"
       id="path7298"
       style="fill:#e80f00;fill-opacity:1;stroke:#00000a;stroke-opacity:1"
       sodipodi:type="star"
       inkscape:export-filename="/home/dps/Documents/Programing/workspace/HELIOPropagation/web/common_files/images/exp_sep.png"
       inkscape:export-xdpi="99.010002"
       inkscape:export-ydpi="99.010002" />
    <text
       inkscape:export-ydpi="99.010002"
       inkscape:export-xdpi="99.010002"
       inkscape:export-filename="/home/dps/Documents/Programing/workspace/HELIOPropagation/web/common_files/images/exp_sep.png"
       xml:space="preserve"
       style="font-size:11px;font-style:normal;font-variant:normal;font-weight:normal;font-stretch:normal;line-height:125%;letter-spacing:0px;word-spacing:0px;fill:#000000;fill-opacity:1;stroke:none;font-family:Courier 10 Pitch;-inkscape-font-specification:Courier 10 Pitch"
       x="433.83795"
       y="393.57419"
       id="text7234-6"
       sodipodi:linespacing="125%"><tspan
         sodipodi:role="line"
         id="tspan7236-6"
         x="433.83795"
         y="393.57419">Parker's spiral</tspan></text>
    <g
       id="g5523"
       transform="matrix(0.43738709,0,0,0.43738709,410.36665,235.63848)"
       inkscape:export-filename="/home/dps/Documents/Programing/workspace/HELIOPropagation/web/common_files/images/exp_sep.png"
       inkscape:export-xdpi="99.010002"
       inkscape:export-ydpi="99.010002">
      <g
         id="content"
         transform="matrix(1.0629921,0,0,-1.0629921,-186.02362,789.27165)"
         xml:space="preserve"
         stroke-miterlimit="10.433"
         font-style="normal"
         font-variant="normal"
         font-weight="normal"
         font-stretch="normal"
         font-size-adjust="none"
         letter-spacing="normal"
         word-spacing="normal"
         style="font-style:normal;font-variant:normal;font-weight:normal;font-stretch:normal;letter-spacing:normal;word-spacing:normal;text-anchor:start;fill:none;stroke:#000000;stroke-linecap:butt;stroke-linejoin:miter;stroke-miterlimit:10.43299961;stroke-opacity:1;stroke-dasharray:none;stroke-dashoffset:0"><path
           d="m 459.91,403.74 -0.02,-0.07 -0.01,-0.08 -0.02,-0.07 -0.01,-0.08 -0.04,-0.16 -0.04,-0.16 -0.03,-0.16 -0.04,-0.16 -0.04,-0.16 -0.04,-0.16 -0.01,-0.08 -0.02,-0.07 -0.02,-0.07 -0.01,-0.07 -0.02,-0.07 -0.01,-0.07 -0.01,-0.06 -0.01,-0.06 -0.01,-0.05 -0.01,-0.06 -0.01,-0.04 -0.01,-0.05 -0.01,-0.04 0,-0.04 0,-0.03 0,-0.02 c 0,-0.89 0.7,-1.35 1.43,-1.35 0.61,0 1.5,0.39 1.85,1.39 0.11,0.21 1.8,6.99 2,7.88 0.39,1.64 1.3,5.12 1.59,6.48 0.21,0.64 1.6,2.99 2.78,4.08 0.41,0.35 1.85,1.64 4,1.64 1.28,0 2.03,-0.59 2.08,-0.59 -1.48,-0.25 -2.58,-1.45 -2.58,-2.74 0,-0.79 0.55,-1.75 1.89,-1.75 1.35,0 2.74,1.15 2.74,2.94 0,1.75 -1.6,3.24 -4.13,3.24 -3.25,0 -5.43,-2.44 -6.39,-3.83 -0.39,2.23 -2.18,3.83 -4.53,3.83 -2.28,0 -3.23,-1.94 -3.69,-2.83 -0.89,-1.7 -1.54,-4.69 -1.54,-4.85 0,-0.5 0.5,-0.5 0.61,-0.5 0.5,0 0.54,0.07 0.84,1.16 0.84,3.53 1.84,5.92 3.64,5.92 0.84,0 1.55,-0.39 1.55,-2.28 0,-1.05 -0.16,-1.61 -0.8,-4.19 z"
           id="path5526"
           inkscape:connector-curvature="0"
           style="fill:#000000;stroke-width:0" /><path
           d="m 527.43,417.1 0.14,0 0.15,0 0.14,0 0.07,0.01 0.08,0 0.07,0.01 0.07,0.01 0.07,0.01 0.07,0.01 0.07,0.01 0.06,0.02 0.07,0.02 0.06,0.02 0.06,0.03 0.06,0.02 0.06,0.03 0.05,0.04 0.05,0.04 0.05,0.04 0.04,0.04 0.04,0.05 0.02,0.03 0.02,0.03 0.01,0.03 0.02,0.03 0.01,0.03 0.02,0.03 0.01,0.03 0.01,0.04 0.01,0.03 0.01,0.04 0,0.04 0.01,0.04 0,0.04 0.01,0.04 0,0.05 0,0.04 c 0,1 -0.95,1 -1.64,1 h -29.84 c -0.71,0 -1.64,0 -1.64,-1 0,-0.98 0.93,-0.98 1.68,-0.98 z"
           id="path5528"
           inkscape:connector-curvature="0"
           style="fill:#000000;stroke-width:0" /><path
           d="m 527.48,407.43 0.07,0 0.06,0 0.14,0 0.14,0 0.07,0.01 0.07,0 0.07,0.01 0.07,0.01 0.06,0.01 0.07,0.01 0.07,0.01 0.06,0.02 0.07,0.02 0.06,0.02 0.06,0.03 0.06,0.02 0.05,0.04 0.05,0.03 0.05,0.04 0.05,0.04 0.04,0.05 0.02,0.02 0.02,0.03 0.02,0.02 0.02,0.03 0.01,0.03 0.02,0.03 0.01,0.03 0.02,0.04 0.01,0.03 0.01,0.04 0.01,0.03 0.01,0.04 0,0.04 0.01,0.04 0,0.04 0.01,0.05 0,0.04 0,0.05 c 0,1 -0.95,1 -1.69,1 h -29.75 c -0.75,0 -1.68,0 -1.68,-1 0,-1 0.93,-1 1.64,-1 z"
           id="path5530"
           inkscape:connector-curvature="0"
           style="fill:#000000;stroke-width:0" /><path
           d="m 575.07,453.05 0,0.13 0,0.12 0,0.12 -0.01,0.11 -0.01,0.12 -0.01,0.11 -0.01,0.11 -0.01,0.1 -0.03,0.21 -0.04,0.19 -0.04,0.18 -0.05,0.18 -0.06,0.16 -0.05,0.16 -0.07,0.15 -0.06,0.13 -0.07,0.13 -0.08,0.12 -0.08,0.12 -0.08,0.1 -0.08,0.1 -0.08,0.09 -0.09,0.08 -0.09,0.07 -0.09,0.07 -0.09,0.06 -0.09,0.05 -0.1,0.05 -0.09,0.04 -0.09,0.03 -0.09,0.03 -0.09,0.03 -0.09,0.01 -0.09,0.02 -0.09,0 -0.08,0.01 c -1.25,0 -2.44,-1.3 -2.44,-2.4 0,-0.64 0.25,-0.93 0.8,-1.48 1.04,-1 1.68,-2.3 1.68,-4.09 0,-2.1 -3.03,-13.5 -8.86,-13.5 -2.54,0 -3.68,1.75 -3.68,4.32 0,2.8 1.34,6.44 2.89,10.57 0.34,0.86 0.59,1.54 0.59,2.5 0,2.23 -1.59,4.08 -4.09,4.08 -4.68,0 -6.58,-7.22 -6.58,-7.68 0,-0.5 0.5,-0.5 0.61,-0.5 0.5,0 0.54,0.11 0.79,0.91 1.44,5.03 3.58,6.17 5.04,6.17 0.39,0 1.25,0 1.25,-1.59 0,-1.25 -0.5,-2.6 -0.86,-3.49 -2.19,-5.78 -2.83,-8.07 -2.83,-10.22 0,-5.37 4.37,-6.17 6.67,-6.17 8.38,0 11.2,16.49 11.2,19.08 z"
           id="path5532"
           inkscape:connector-curvature="0"
           style="fill:#000000;stroke-width:0" /><path
           d="m 590.9,440.17 -0.09,-0.02 -0.08,-0.02 -0.08,-0.03 -0.08,-0.03 -0.07,-0.03 -0.08,-0.03 -0.07,-0.04 -0.07,-0.04 -0.06,-0.04 -0.07,-0.05 -0.06,-0.04 -0.06,-0.05 -0.06,-0.05 -0.05,-0.05 -0.05,-0.05 -0.05,-0.06 -0.05,-0.06 -0.04,-0.05 -0.04,-0.06 -0.04,-0.06 -0.03,-0.06 -0.04,-0.06 -0.03,-0.06 -0.02,-0.07 -0.03,-0.06 -0.02,-0.07 -0.01,-0.06 -0.02,-0.06 -0.01,-0.07 -0.01,-0.06 0,-0.07 0,-0.06 c 0,-0.82 0.7,-1.13 1.15,-1.13 0.35,0 1.67,0.22 1.67,1.99 0,2.26 -2.5,3.03 -4.62,3.03 -5.44,0 -6.42,-4 -6.42,-5.08 0,-1.3 0.73,-2.13 1.22,-2.55 0.9,-0.7 1.53,-0.83 3.93,-1.25 0.74,-0.14 2.97,-0.56 2.97,-2.29 0,-0.6 -0.39,-1.93 -1.84,-2.8 -1.36,-0.77 -3.08,-0.77 -3.49,-0.77 -1.4,0 -3.39,0.32 -4.18,1.47 1.15,0.14 1.92,1 1.92,1.99 0,0.87 -0.63,1.28 -1.36,1.28 -1.02,0 -2.03,-0.8 -2.03,-2.33 0,-2.09 2.23,-3.38 5.61,-3.38 6.42,0 7.61,4.39 7.61,5.75 0,3.21 -3.54,3.83 -4.82,4.08 -0.31,0.06 -1.18,0.21 -1.39,0.27 -1.29,0.25 -1.92,0.98 -1.92,1.75 0,0.8 0.63,1.73 1.39,2.23 0.94,0.6 2.16,0.66 2.75,0.66 0.74,0 2.55,-0.11 3.32,-1.3 z"
           id="path5534"
           inkscape:connector-curvature="0"
           style="fill:#000000;stroke-width:0" /><path
           d="m 613.05,438.19 0.02,0.09 0.03,0.09 0.02,0.1 0.03,0.1 0.02,0.11 0.03,0.11 0.05,0.21 0.06,0.22 0.05,0.23 0.06,0.22 0.02,0.1 0.03,0.11 0.02,0.1 0.03,0.1 0.02,0.1 0.02,0.1 0.02,0.09 0.02,0.08 0.02,0.08 0.02,0.08 0.01,0.07 0.01,0.06 0.02,0.06 0.01,0.05 0,0.05 0.01,0.03 0,0.02 0,0.01 0,0.01 0,0.01 c 0,0.69 -0.54,1.11 -1.14,1.11 -0.67,0 -1.29,-0.42 -1.5,-1.01 -0.11,-0.27 -0.45,-1.74 -0.7,-2.61 -0.48,-1.99 -0.48,-2.05 -1,-4 -0.45,-1.92 -0.53,-2.2 -0.56,-3.2 0.14,-0.71 -0.14,-1.36 -0.99,-2.41 -0.43,-0.56 -1.14,-1.16 -2.33,-1.16 -1.36,0 -3.14,0.49 -3.14,3.21 0,1.78 0.99,4.36 1.68,6.14 0.59,1.53 0.73,1.84 0.73,2.43 0,1.68 -1.42,2.96 -3.31,2.96 -3.52,0 -5.08,-4.74 -5.08,-5.33 0,-0.45 0.48,-0.45 0.59,-0.45 0.49,0 0.52,0.17 0.63,0.56 0.87,2.89 2.37,4.25 3.76,4.25 0.6,0 0.86,-0.39 0.86,-1.22 0,-0.8 -0.31,-1.56 -0.48,-2.02 -1.99,-5.09 -1.99,-5.79 -1.99,-6.87 0,-4.11 3.74,-4.63 5.61,-4.63 0.68,0 2.38,0 3.94,2.33 0.8,-1.56 2.72,-2.33 4.84,-2.33 3.11,0 4.65,2.68 5.33,4.11 1.5,2.93 2.44,7.28 2.44,8.89 0,2.61 -1.48,2.75 -1.73,2.75 -0.91,0 -1.88,-0.95 -1.88,-1.86 0,-0.57 0.34,-0.85 0.58,-1.07 0.84,-0.69 1.3,-1.67 1.3,-2.78 0,-0.46 -1.47,-9.07 -5.89,-9.07 -2.83,0 -2.83,2.52 -2.83,3.11 0,0.94 0.14,1.5 0.64,3.49 z"
           id="path5536"
           inkscape:connector-curvature="0"
           style="fill:#000000;stroke-width:0" /><polyline
           points="552,412 627.24,412 627.24,414.04 552,414.04 "
           id="polyline5538"
           style="fill:#000000;fill-rule:nonzero;stroke-width:0" /><path
           d="M 588.25,374.8 H 587 c -0.25,-1.3 -0.45,-2.46 -0.89,-3.64 -0.25,-0.8 -0.4,-1.21 -3.29,-1.21 h -3.99 c 0.64,2.8 2.19,5.19 4.44,8.47 2.34,3.55 4.38,6.99 4.38,10.92 0,6.93 -6.72,12.5 -15.15,12.5 -8.56,0 -15.18,-5.68 -15.18,-12.5 0,-3.93 2.03,-7.37 4.37,-10.92 2.19,-3.28 3.78,-5.67 4.44,-8.47 h -3.98 c -2.9,0 -3.05,0.41 -3.3,1.16 -0.39,1.14 -0.64,2.44 -0.89,3.69 h -1.25 l 1.65,-8.08 h 7.97 c 1.1,0 1.24,0 1.24,1.05 0,3.48 -1.54,7.87 -2.69,11.06 -1.05,2.89 -2.44,6.83 -2.44,10.56 0,7.97 5.49,11.36 10.02,11.36 4.78,0 10.06,-3.59 10.06,-11.36 0,-3.73 -1.34,-7.53 -2.8,-11.61 -0.73,-2.09 -2.32,-6.58 -2.32,-10.01 0,-1.05 0.13,-1.05 1.28,-1.05 h 7.92 z"
           id="path5540"
           inkscape:connector-curvature="0"
           style="fill:#000000;stroke-width:0" /><path
           d="m 618.91,367.88 -0.02,0.66 -0.05,0.66 -0.08,0.65 -0.11,0.63 -0.15,0.62 -0.17,0.62 -0.21,0.59 -0.23,0.59 -0.26,0.57 -0.28,0.55 -0.31,0.54 -0.34,0.52 -0.36,0.5 -0.38,0.49 -0.41,0.46 -0.43,0.45 -0.44,0.42 -0.47,0.41 -0.49,0.38 -0.5,0.35 -0.52,0.33 -0.54,0.31 -0.55,0.28 -0.57,0.26 -0.58,0.23 -0.6,0.2 -0.6,0.17 -0.62,0.14 -0.63,0.12 -0.64,0.08 -0.65,0.05 -0.65,0.01 v -1.17 c 6.46,0 11.67,-5.3 11.67,-11.64 0,-6.48 -5.27,-11.67 -11.67,-11.67 h 0 c -6.49,0 -11.67,5.3 -11.67,11.64 0,6.47 5.25,11.67 11.67,11.67 v 1.17 c -7.11,0 -12.86,-5.81 -12.86,-12.81 0,-7.14 5.81,-12.86 12.86,-12.86 7.11,0 12.84,5.81 12.84,12.83 z"
           id="path5542"
           inkscape:connector-curvature="0"
           style="fill:#000000;stroke-width:0" /><path
           d="m 608.68,367.88 -0.01,0.13 -0.01,0.14 -0.01,0.13 -0.03,0.13 -0.03,0.13 -0.03,0.12 -0.04,0.12 -0.05,0.12 -0.05,0.12 -0.06,0.11 -0.07,0.11 -0.06,0.1 -0.08,0.11 -0.08,0.09 -0.08,0.1 -0.09,0.09 -0.09,0.08 -0.09,0.09 -0.1,0.07 -0.1,0.08 -0.11,0.06 -0.11,0.07 -0.11,0.05 -0.12,0.05 -0.11,0.05 -0.13,0.04 -0.12,0.04 -0.12,0.03 -0.13,0.02 -0.13,0.01 -0.13,0.01 -0.13,0.01 c -1.55,0 -2.63,-1.22 -2.63,-2.58 0,-1.47 1.19,-2.62 2.63,-2.62 1.53,0 2.61,1.23 2.61,2.59 z"
           id="path5544"
           inkscape:connector-curvature="0"
           style="fill:#000000;stroke-width:0" /><path
           d="m 655.67,425.71 0,0.32 -0.01,0.34 -0.01,0.35 -0.03,0.37 -0.03,0.39 -0.04,0.39 -0.04,0.41 -0.06,0.41 -0.07,0.42 -0.07,0.43 -0.09,0.42 -0.1,0.43 -0.12,0.42 -0.12,0.42 -0.14,0.42 -0.16,0.4 -0.16,0.4 -0.19,0.38 -0.2,0.38 -0.22,0.35 -0.23,0.34 -0.25,0.32 -0.27,0.3 -0.29,0.27 -0.31,0.25 -0.17,0.12 -0.16,0.11 -0.18,0.1 -0.17,0.09 -0.19,0.08 -0.19,0.08 -0.19,0.07 -0.2,0.06 -0.21,0.05 -0.21,0.05 -0.22,0.03 -0.22,0.03 -0.23,0.01 -0.23,0.01 -0.05,-1.1 c 2.44,0 2.74,-3.19 2.74,-6.03 0,-2.44 -0.4,-4.98 -1.6,-9.92 h -10.4 c 0.84,3.2 1.84,7.19 3.82,10.72 1.36,2.44 3.19,5.23 5.44,5.23 l 0.05,1.1 c -6.92,0 -14.6,-14.05 -14.6,-25.46 0,-4.68 1.44,-10.22 5.99,-10.22 v 1.1 c -1.66,0 -2.7,1.45 -2.7,6.08 0,2.09 0.29,4.98 1.59,9.86 h 10.37 c -0.54,-2.29 -1.59,-6.52 -3.5,-10.11 -1.73,-3.39 -3.62,-5.83 -5.76,-5.83 v -1.1 c 7.01,0 14.59,14.3 14.59,25.46 z"
           id="path5546"
           inkscape:connector-curvature="0"
           style="fill:#000000;stroke-width:0" /></g>    </g>
    <text
       inkscape:export-ydpi="99.010002"
       inkscape:export-xdpi="99.010002"
       inkscape:export-filename="/home/dps/Documents/Programing/workspace/HELIOPropagation/web/common_files/images/exp_sep.png"
       sodipodi:linespacing="125%"
       id="text6055"
       y="321.10529"
       x="469.88568"
       style="font-size:11px;font-style:normal;font-variant:normal;font-weight:normal;font-stretch:normal;line-height:125%;letter-spacing:0px;word-spacing:0px;fill:#000000;fill-opacity:1;stroke:none;font-family:Courier 10 Pitch;-inkscape-font-specification:Courier 10 Pitch"
       xml:space="preserve"><tspan
         y="321.10529"
         x="469.88568"
         id="tspan6057"
         sodipodi:role="line">Protons speed: 0.9c</tspan></text>
    <path
       inkscape:export-ydpi="99.010002"
       inkscape:export-xdpi="99.010002"
       inkscape:export-filename="/home/dps/Documents/Programing/workspace/HELIOPropagation/web/common_files/images/exp_sep.png"
       style="fill:none;stroke:#ff0039;stroke-width:0.69999999000000002;stroke-linecap:butt;stroke-linejoin:miter;stroke-miterlimit:4;stroke-opacity:1;stroke-dasharray:none;marker-end:url(#Arrow1Lend)"
       d="m 467.59399,317.91595 c -14.16467,-0.5473 -49.65227,-4.85752 -66.98179,-8.63937"
       id="path6059"
       inkscape:connector-curvature="0"
       sodipodi:nodetypes="cc" />
  </g>
</svg>
